<svg width="22" height="21" viewBox="0 0 22 21" fill="none" xmlns="http://www.w3.org/2000/svg">
<path d="M21.6922 19.2296L17.6139 15.365C19.1968 13.4793 19.9554 11.0858 19.7466 8.67673C19.5487 6.26763 18.3834 4.02603 16.4926 2.41286C14.6128 0.799582 12.1504 -0.0626166 9.62209 0.00354436C7.09374 0.0697054 4.68632 1.05908 2.89449 2.76835C1.10267 4.47761 0.0693369 6.77675 0.00338009 9.1931C-0.0625768 11.6093 0.838877 13.9592 2.52078 15.7594C4.21367 17.5595 6.5551 18.6732 9.08345 18.8714C11.6008 19.0695 14.1072 18.3371 16.0859 16.8247L20.1313 20.6894C20.2302 20.7879 20.3511 20.866 20.483 20.9192C20.6149 20.9726 20.7578 21 20.9117 21C21.0546 21 21.1975 20.9726 21.3295 20.9192C21.4614 20.866 21.5822 20.7879 21.6922 20.6894C21.89 20.4936 22 20.2319 22 19.9595C22 19.6872 21.89 19.4255 21.6922 19.2296ZM9.91891 16.8247C8.39091 16.8247 6.90687 16.3936 5.6427 15.5858C4.37852 14.7781 3.38922 13.63 2.8066 12.2867C2.22398 10.9434 2.07006 9.46541 2.36686 8.03938C2.66367 6.61334 3.40023 5.30357 4.47753 4.27545C5.54383 3.24733 6.91788 2.54717 8.4129 2.26352C9.90793 1.97987 11.458 2.12554 12.854 2.68192C14.2611 3.2383 15.4704 4.18051 16.3168 5.38937C17.1632 6.59833 17.6139 8.01963 17.6139 9.4735C17.6139 11.4233 16.8004 13.293 15.3603 14.6716C13.9093 16.0502 11.9526 16.8247 9.91891 16.8247Z" fill="white"/>
</svg>
